<svg id="Layer_2" data-name="Layer 2" xmlns="http://www.w3.org/2000/svg" xmlns:xlink="http://www.w3.org/1999/xlink" viewBox="0 0 400 300" width="406" height="306" class="illustration"><defs><linearGradient id="linear-gradient" x1="155.18" y1="252.8" x2="172.66" y2="221.32" gradientUnits="userSpaceOnUse"><stop offset="0" stop-color="#acf4e6"></stop><stop offset="1" stop-color="#8ecdc6"></stop></linearGradient><linearGradient id="linear-gradient-2" x1="66.94" y1="177.27" x2="84.84" y2="163.65" xlink:href="#linear-gradient"></linearGradient></defs><title>PP_</title><path d="M192.34,285.47l-165.77-98c-5.28-3-9.8-7.83-4.66-11L188.28,80.6c2.5-1.55,6.29-2.56,8.82-1.09l174,101c5.28,3.06,6.22,11.63.94,14.69L214.19,285.31A22,22,0,0,1,192.34,285.47Z" fill="#acf4e6"></path><path d="M134.22,209.14,96.41,228.78s68.12,40.19,90.42,53.44l37.39-23.91" fill="url(#linear-gradient)"></path><path d="M224.22,258.31V155l92.5-51.67v102.5Z" fill="#eca016"></path><path d="M224.22,155l-90-51.67s-2.5,104.17,0,105.84,90,49.17,90,49.17Z" fill="#ffb72f"></path><polygon points="134.22 103.31 224.22 48.3 316.73 103.31 224.22 154.97 134.22 103.31" fill="#ffc863"></polygon><polygon points="179.27 85.04 253.16 125.57 253.16 125.57 274.4 113.7 274.4 113.7 200.53 72.05 179.27 85.04" fill="#fdedcb"></polygon><path d="M195.89,79.83h0a3.89,3.89,0,0,0,.27,6.65L253.53,118a3.89,3.89,0,0,0,3.92-.11l.05,0a3.89,3.89,0,0,0-.18-6.71L199.91,79.66A3.89,3.89,0,0,0,195.89,79.83Z" fill="#34323d"></path><path d="M203.08,47.82s38.08,8.5,45.66,67.54L200.46,88.83s-8.39-41.69-42.49-41C158,47.82,192.54,46.18,203.08,47.82Z" fill="#F37DF3"></path><path d="M203.08,47.82s38.08,8.5,45.66,67.54L200.46,88.83s-8.39-41.69-42.49-41C158,47.82,192.54,46.18,203.08,47.82Z" fill="#311e69" opacity="0.19"></path><path d="M146.36,49.47l45.12,15.42s-3.35-19.68,11.6-17.06l-41.82-9.49a3.6,3.6,0,0,0-1.29-.06C157.11,38.67,146.25,40.74,146.36,49.47Z" fill="#F37DF3"></path><path d="M157.59,118,130.95,230.56c-.64,2.71,3.53,3.86,4.17,1.15l26.64-112.56c.64-2.71-3.53-3.86-4.17-1.15Z" fill="#9e4c36"></path><path d="M182.59,131.32,156,243.88c-.64,2.71,3.53,3.86,4.17,1.15l26.64-112.56c.64-2.71-3.53-3.86-4.17-1.15Z" fill="#9e4c36"></path><path d="M154.82,135.75l25,14c2.43,1.36,4.62-2.38,2.18-3.74l-25-14c-2.43-1.36-4.62,2.38-2.18,3.74Z" fill="#9e4c36"></path><path d="M152.21,151.39l24,13.39c2.43,1.36,4.62-2.38,2.18-3.74l-24-13.39c-2.43-1.36-4.62,2.38-2.18,3.74Z" fill="#9e4c36"></path><path d="M149.31,164.07l23.94,13.38c2.43,1.36,4.62-2.38,2.18-3.74l-23.94-13.38c-2.43-1.36-4.62,2.38-2.18,3.74Z" fill="#9e4c36"></path><path d="M145.54,177.7,169.27,191c2.43,1.36,4.62-2.38,2.18-3.74L147.73,174c-2.43-1.36-4.62,2.38-2.18,3.74Z" fill="#9e4c36"></path><path d="M142.28,190.18l23.77,13.28c2.43,1.36,4.62-2.38,2.18-3.74l-23.77-13.28c-2.43-1.36-4.62,2.38-2.18,3.74Z" fill="#9e4c36"></path><path d="M138.65,204.68l25,14c2.43,1.36,4.62-2.38,2.18-3.74l-25-14c-2.43-1.36-4.62,2.38-2.18,3.74Z" fill="#9e4c36"></path><path d="M185.48,66.63s2.76-3.36,3-4.49.38-5.7,1.19-5.8,1.26.83,1.75.73a10,10,0,0,1,2.13-.39c.18.12,2.93,3,2.59,4.17s-4.65,4-4.65,4l-5.23,5.73" fill="#fcbf81"></path><path d="M159.18,60.57s-.44-4.33,0-5.39,2.84-5,2.22-5.49-1.51,0-1.86-.35-1.35-1.51-1.56-1.51-4.11.89-4.46,2,1.64,5.94,1.64,5.94l1.19,7.67" fill="#fcbf81"></path><path d="M164.81,81.92s-5.24-23.36-6-23.5a8.58,8.58,0,0,0-5.08,1.18c-1.82,1.18,2.13,27.62,2.13,27.62" fill="#aa2b2b"></path><path d="M162.18,178.54l3.48,1.57a2,2,0,0,0,1.34,1.44.8.8,0,0,0,.48.32,9.42,9.42,0,0,0,4.31-.35c1.76-.4,8.66-2.43,6.42,2.24-1.29.76-2.72,1.39-4,2.05-.74.37-1.48.74-2.23,1.08a4.25,4.25,0,0,1-1.3.48c-1,.07-3.25-.84-3.33-.6s-.44,2.07-.44,2.07-6.29,1.84-6.22-2.27C160.66,186,162.18,178.54,162.18,178.54Z" fill="#34323d"></path><path d="M159,172.7s6.25-2.2,7.71-2.19,3.85.7,1.51,3.2c0,0-6.68,3.64-7.53,3.7s-2.83-.73-2.9-.52-.39,1.8-.39,1.8-5.47,1.6-5.41-2c0-.47,1.33-7,1.33-7" fill="#34323d"></path><path d="M160.09,141.47c.22-12.11.78-24.27-.81-36.32.14-3.09-2-1.28-1.78-2.49,1.88-9.83,15.38,3.13,15.38,3.13.55.52.37,3.57.43,4.27q.52,5.79.76,11.6c.83,19.55-1.6,38.74-4.13,58.08-3.32,2.89-5.4,3.66-10.19,1.24,0-12.79.12-25.58.33-38.36Q160.08,142,160.09,141.47Z" fill="#F37DF3"></path><path d="M152.07,162.79c.31-4.81.9-9.61,1.31-14.37.63-7.3.45-14.61.54-21.92.91-9.06,1.83-20.58,1.83-20.58l7.5,2.09s4.87,63.16-2.61,65.84-8.63-2.19-8.63-2.19S152,168,152.07,162.79Z" fill="#F37DF3"></path><path d="M155.14,105.5a20.15,20.15,0,0,1,.48-3.77,44.91,44.91,0,0,0,0-12.1c-.46-3.88-.49-7.89,1.9-11.2,3.45-2,8.25-.21,11.16,1.93,3.93,2.9,5.25,22.59,5.2,28.68,0,.86-5.22,1.3-5.8,1.34a24.53,24.53,0,0,1-8.08-.6c-1.88-.51-4.22-1.44-4.75-3.54A3.92,3.92,0,0,1,155.14,105.5Z" fill="#ea4949"></path><path d="M160,111.17a.55.55,0,0,1,1,.34c-3.56,10.9,2.34,22.17,1.2,33.28-.6,5.85-1.64,11.62-2,17.51a140.44,140.44,0,0,0,.19,18.77c.05.7-1,.64-1.09-.05a140.44,140.44,0,0,1-.19-18.77c.36-6.21,1.57-12.3,2.07-18.48C162.13,132.84,156.49,122,160,111.17Z" fill="#34323d"></path><path d="M164.24,67.27c.33.07,3.32,6.26,2.4,10.13s-7.58.2-9.33-2.65S158,65.93,164.24,67.27Z" fill="#fcbf81"></path><path d="M164.19,68.16A3,3,0,0,1,162.48,71c-1.8.74-3.29,1.26-3.15,2.1s3.29-.25,3.37,1.67a14.37,14.37,0,0,1-.36,3.86c-.16,1-5.74-1.72-7.74-6.58s2.45-6.35,2.67-6.4a4.58,4.58,0,0,1,2.76-2c2.19-.57,2.85.26,2.85.26a2.68,2.68,0,0,1,3.24.22,3.41,3.41,0,0,1-.55,5.8Z" fill="#34323d"></path><path d="M165.29,78.81s6.73.06,9.78-2.27,11.76-14.09,11.76-14.09,6.36,4.4,6.37,5.83-10.8,16.42-13.77,18.11-9.21,5.41-9.21,5.41" fill="#ea4949"></path><path d="M172.21,90.47s-2.26-.06-3.36,0,4.73,10.86,4.73,10.86Z" fill="#aa2b2b"></path><polygon points="257.67 173.02 251.71 200.2 248.27 202.22 242 182.23 245.75 180.02 249.95 195.07 253.92 175.22 257.67 173.02" fill="#fff"></polygon><path d="M274.52,168.19a11.84,11.84,0,0,1,1.28,6,22,22,0,0,1-4.25,13.36,15.15,15.15,0,0,1-4.27,3.78c-3.15,1.85-5.75,1.78-7.42-1a12.32,12.32,0,0,1-1.24-6.05A21.71,21.71,0,0,1,262.87,171a15.63,15.63,0,0,1,4.25-3.79C270.29,165.33,272.92,165.38,274.52,168.19Zm-3.61,14.91a14.75,14.75,0,0,0,1.44-6.89c0-2.65-.52-4.34-1.52-5.12s-2.2-.74-3.69.14a9.87,9.87,0,0,0-3.68,4.19,15,15,0,0,0-1.41,6.84c0,2.68.52,4.37,1.49,5.17s2.22.73,3.71-.15a9.68,9.68,0,0,0,3.66-4.18" fill="#fff"></path><polygon points="290.34 153.82 290.36 157.87 285.32 160.83 285.45 180.38 282.05 182.37 281.92 162.83 276.88 165.79 276.85 161.75 290.34 153.82" fill="#fff"></polygon><polygon points="304.54 145.48 304.57 149.52 296.67 154.16 296.71 159.12 303.04 155.4 303.06 159.44 296.73 163.16 296.78 169.66 304.92 164.87 304.95 168.92 293.42 175.69 293.27 152.1 304.54 145.48" fill="#fff"></polygon><path d="M88.85,161.16,44.52,177s-3.93,7.44,18.37,20.69L98.37,165" fill="url(#linear-gradient-2)"></path><path d="M76.44,112.45a8.72,8.72,0,0,1,4.24.83,6.9,6.9,0,0,1,3,3.41c.65,1.37.94,3.33,2.3,4.21a4,4,0,0,1,1.34,1.17,3.5,3.5,0,0,1,.42,3.26c-.6,1.2-3.11,1.95-4.26,1.72" fill="#8fdb5e"></path><path d="M75.33,112.6a8.19,8.19,0,0,0-7.23,6.2,10.82,10.82,0,0,0-.05,5.11c.33,1.36,1.13,3.71,2.78,3.81,2.24.14,3-2,3.67-3.67s1.44-3.61,3.24-4.29a4.82,4.82,0,0,1,5.16,1.16Z" fill="#1e8c0e"></path><path d="M85.55,121.68c-1.35-1.75-2.47-3.66-3.78-5.44a16.18,16.18,0,0,0-2.62-3.17c-3.11-1.51-7-.13-9.32,2.52.32.1.75.11,1,.2a8.85,8.85,0,0,1,3.56,2.52c1.38,1.52,2.45,3.39,3.66,5,2,2.63,4.6,4.79,8,3.22C88.2,125.53,86.51,122.92,85.55,121.68Z" fill="#8fdb5e"></path><path d="M96.52,99.19s7-.55,6.87,10.53-10.6,3.79-8.3-2.89" fill="#1e8c0e"></path><path d="M95.51,110.09c-.08-3.37,3.71-5.83,6.91-6.27a6.48,6.48,0,0,0-6.33-5c-4.8.12-8.39,5-9.2,10.74A11,11,0,0,0,90.42,119l2.32,2C97,119.31,95.41,113.17,95.51,110.09Z" fill="#8fdb5e"></path><path d="M114.6,118a14.63,14.63,0,0,0-1.62-6,6.63,6.63,0,0,0-4.56-3.53l-3.95,7.6s5.88-10.28,3.48-2.36,5.52,16.79,6.6,5C114.57,118.46,114.58,118.25,114.6,118Z" fill="#1e8c0e"></path><path d="M86.72,137.8s-5.27,3.43-3.81,11.45a44,44,0,0,0,2.34,8.14c1,2.61,1.77,6,4.4,7.45,2.45,1.37,6.24,1.62,8.71.11,2.26-1.38,3.07-4.52,3.9-6.85a42.52,42.52,0,0,0,2-8.85C106.78,129.86,86.72,137.8,86.72,137.8Z" fill="#F37DF3"></path><ellipse cx="93.82" cy="138.97" rx="7.69" ry="2.78" fill="#F37DF3"></ellipse><path d="M94.44,124.16c-1.07-2.59-3.08-4.77-3.71-7.55a9.88,9.88,0,0,1,3.93-10.08c.59-.43,0-1.41-.57-1-4.92,3.57-5.87,9.67-3,14.86a27,27,0,0,1,2.59,4.93c.71,2.32-.08,4-1.17,5.72a6.59,6.59,0,0,0-1.71-4.66c-1.28-1.19-3.16-1.38-4.74-1.92-3.06-1-5.76-2.78-6.28-6.2-.11-.72-1.21-.41-1.1.3a8.2,8.2,0,0,0,4.73,6.05A32.93,32.93,0,0,0,88,126.22a5.31,5.31,0,0,1,3,2.94c.73,1.67.23,2.82-.18,4.44-.53,2.11-1.37,3.92.08,5.91.43.59,1.41,0,1-.57-2.31-3.18,1.38-6.2,2.62-8.93A7,7,0,0,0,94.44,124.16Z" fill="#1e8c0e"></path><path d="M108.63,117.19c-4.86-.86-8.17,2.91-7.88,7.61a17.84,17.84,0,0,0,.65,3.48,9.11,9.11,0,0,1,.64,3,4.59,4.59,0,0,1-2.78,3.25,6.62,6.62,0,0,0-4.1,4.5.57.57,0,0,0,1.1.3c1.12-4.12,6.87-3.52,6.92-8.05,0-2.21-1.16-4.29-1.29-6.51-.24-3.87,2.29-7.25,6.44-6.51C109,118.41,109.35,117.31,108.63,117.19Z" fill="#1e8c0e"></path><path d="M113,112c-1.88-3.47-5.3-4.29-8.66-3.25a11,11,0,0,0-1.35.66c-8.44,6.25-2.45,20.36-1.15,20.26,4.3-.35,3.86-2.88,5.29-10a6.68,6.68,0,0,1,6.72-5.66A12.5,12.5,0,0,0,113,112Z" fill="#8fdb5e"></path><path d="M111.12,109.7a7,7,0,0,0-7.19,3.45c-3.08,5.16-2.37,11.17-2,16.86.05.73,1.19.73,1.14,0-.3-4.11-.88-8.19.24-12.23.55-2,1.21-4.19,2.79-5.6a5.83,5.83,0,0,1,6.35-.91l-.43-.58C111.74,110.36,111.43,110,111.12,109.7Z" fill="#1e8c0e"></path></svg>