<svg id="Layer_1" data-name="Layer 1" xmlns="http://www.w3.org/2000/svg" xmlns:xlink="http://www.w3.org/1999/xlink" viewBox="0 0 400 300" width="406" height="306" class="illustration"><defs><linearGradient id="linear-gradient" x1="124.52" y1="242.15" x2="192.09" y2="174.57" gradientUnits="userSpaceOnUse"><stop offset="0" stop-opacity="0"></stop><stop offset="1" stop-color="#f15a24"></stop></linearGradient><linearGradient id="linear-gradient-2" x1="248.55" y1="217.06" x2="296.79" y2="168.81" xlink:href="#linear-gradient"></linearGradient></defs><title>1</title><path d="M33.22,197.13l149.47,86.49a20.76,20.76,0,0,0,20.76,0C235,265.48,329,211,357.19,194.66a5.4,5.4,0,0,0,0-9.34L197.61,92.61a6.86,6.86,0,0,0-6.92,0L33.18,185.27A6.86,6.86,0,0,0,33.22,197.13Z" fill="#f6982c"></path><polyline points="139.37 206.45 95.83 230.03 132.85 254.33 187.33 220.15" fill="url(#linear-gradient)"></polyline><polyline points="270.36 189.97 230.96 211.31 247.88 222.93 290.49 198.45" fill="url(#linear-gradient-2)"></polyline><path d="M127.52,151.17V145.5s5.39-10,33.83-10c29.73,0,33.3,10.83,33.3,10.83v8.82" fill="#F37DF3"></path><ellipse cx="161.06" cy="213.37" rx="31.33" ry="12.44" fill="#F37DF3"></ellipse><ellipse cx="161.06" cy="213.37" rx="28.21" ry="9.82" opacity="0.61"></ellipse><path d="M127.52,151.17s-2.72,66.1,33.54,67.34,33.54-67.34,33.54-67.34" fill="#F37DF3"></path><ellipse cx="161.06" cy="151.17" rx="33.54" ry="12.53" fill="#5d4030"></ellipse><path d="M157.58,137a101.38,101.38,0,0,1,1.51,10.74,54.26,54.26,0,0,1,.63,6.26,21.74,21.74,0,0,0,5.32.16c2.56-22.49,1.83-45.36-3.34-67.45-1.86-8-3.76-18.63-10.85-23.82-5.36-3.92-13.17-3.5-17,2.24-1.43,2.15,2,4.16,3.45,2,2.79-4.21,8.68-3.31,12-.34,3,2.7,4.51,6.76,5.71,10.52a158.11,158.11,0,0,1,5.58,25.14,192.84,192.84,0,0,1,1.58,37.9,107.59,107.59,0,0,0-5.37-20.88,110.65,110.65,0,0,0-21.92-36.13c-1.73-1.91-4.55.92-2.83,2.83a105.63,105.63,0,0,1,20.61,33.6A106.93,106.93,0,0,1,157.58,137Z" fill="#386b02"></path><path d="M135.65,66s6-9.3,3-16.95-12.31-10.5-17.33-10.2-18.52,2.55-21.22,4.35S88.55,54.32,89,53.57s10.5-3.17,17.25-1.14,15.45,5.44,16.5,8.69-3.23,1-8.51-1S88,56.42,85.55,58.07,74.9,76.37,74.9,76.37s24.9-9,30.9-6.9-1.19,4.57-3,4.61S78.35,76.82,76.85,80c0,0,1.91,17.77,3.2,20.36s0,6,0,6,4.27-4.14,7-4,17.74,4.79,23.57,4,17.87-6.86,20.85-12c0,0-2.85-10.36-5.83-14.63s1.68-4,3.37-2.46,4.4,13.47,4.79,13.21,8.55-5.7,9.71-8.68S135.65,66,135.65,66Z" fill="#4d9632"></path><path d="M135.86,65.53c-.81.16-1.59.36-2.38.56l0-.16a.4.4,0,0,0-.2-.31A38.89,38.89,0,0,0,107,45.2c-.63-.14-.9.83-.27,1a37.93,37.93,0,0,1,25.8,20.15,63.5,63.5,0,0,0-12.71,5,.43.43,0,0,0-.65-.27.47.47,0,0,0-.18-.18,52.81,52.81,0,0,0-32.23-6.9c-.63.07-.64,1.07,0,1a51.9,51.9,0,0,1,31.73,6.76.45.45,0,0,0,.41,0v0a101.31,101.31,0,0,0-14.6,9.67.46.46,0,0,0-.42-.27,73.9,73.9,0,0,0-16.23,1.38c-.63.12-.36,1.09.27,1a72.61,72.61,0,0,1,15.44-1.34c-4.86,3.85-9.51,8-14.06,12.11-.48.43.23,1.14.71.71,4.48-4,9-8.12,13.81-11.91.79,2.33.47,5,.44,7.41l-.1,7.17a.5.5,0,0,0,1,0l.12-9.08a16.51,16.51,0,0,0-.64-6.15A101.34,101.34,0,0,1,119,72.84a95,95,0,0,1,.73,20.29c0,.64,1,.64,1,0a96,96,0,0,0-.79-20.79,63.1,63.1,0,0,1,12.69-5,115,115,0,0,1,1,14.63.5.5,0,0,0,1,0,116.6,116.6,0,0,0-1.06-14.87c.84-.21,1.67-.42,2.52-.59C136.76,66.37,136.49,65.4,135.86,65.53Z" fill="#5fbf5b"></path><path d="M145.93,72.61s-.85-11,5.43-16.34,15.82-3.38,20.1-.72S186.53,66.61,188,69.48s4.88,15.26,4.84,14.38-7.73-7.79-14.63-9.21-16.18-2.57-18.65-.21,2.36,2.41,7.94,3.21,24.9,9.21,26.23,11.8.66,21.16.66,21.16-17.62-19.76-23.89-20.77-1.13,4.59.45,5.48,20.2,14,20,17.53c0,0-10.14,14.72-12.51,16.39s-2.83,5.24-2.83,5.24-1.79-5.68-4.24-6.86-17.88-4.23-22.64-7.68-12.45-14.54-12.61-20.51c0,0,7.43-7.76,12.09-10.1s.43-4.33-1.79-3.77S136.2,95.32,136,94.91s-4.81-9.08-4.41-12.25S145.93,72.61,145.93,72.61Z" fill="#88bc22"></path><path d="M146,72.09c.63.53,1.23,1.08,1.83,1.62l.09-.13a.4.4,0,0,1,.33-.18A38.89,38.89,0,0,1,181.07,68c.62.18.39,1.15-.22,1a37.93,37.93,0,0,0-32.28,5.45,63.5,63.5,0,0,1,8.81,10.43.43.43,0,0,1,.7.08.47.47,0,0,1,.24-.08A52.81,52.81,0,0,1,190,94.08c.52.36.05,1.24-.48.88a51.9,51.9,0,0,0-31.13-9.15.45.45,0,0,1-.38-.16l0,0a101.31,101.31,0,0,1,8.24,15.46.46.46,0,0,1,.49,0A73.9,73.9,0,0,1,180.31,110c.5.41-.2,1.13-.69.72a72.61,72.61,0,0,0-12.94-8.53c2.44,5.7,4.55,11.56,6.6,17.34.22.61-.74.89-1,.29-2-5.68-4.09-11.45-6.48-17.05-1.8,1.68-2.79,4.17-3.91,6.31l-3.32,6.35a.5.5,0,0,1-.88-.48l4.21-8a16.51,16.51,0,0,1,3.49-5.1,101.34,101.34,0,0,0-8.1-15.31A95,95,0,0,0,147,104c-.27.59-1.14.11-.88-.48a96,96,0,0,1,10.59-17.9A63.1,63.1,0,0,0,148,75.19a115,115,0,0,0-7.87,12.38.5.5,0,0,1-.88-.48,116.6,116.6,0,0,1,8-12.57c-.63-.58-1.27-1.16-1.94-1.72C144.79,72.4,145.49,71.68,146,72.09Z" fill="#386b02"></path><path d="M139.17,65.83S115.64,63.76,108,67.89,91.69,82.14,90.66,84.62s-2.27,11.56-2.27,11.56,13.83-10.94,22.71-8.46S89,96.38,87.56,103.82s0,19.41,0,19.41,12.18-15.48,20.23-19.41,4.13,2.27-1.86,6.4S90.24,122.4,90.66,124.67s13.83,15.69,14.45,18.37c0,0,1.66,2.29.75,4.39,0,0,3.93-4.19,5.11-5.63s8.64-2.88,13.35-3.93,15.71-6.28,19.51-14.66c0,0,2-4.71,1.18-6.94s-11.26-14.66-10.08-16.49,6.28.26,8.38,3.4,4.06,17,4.06,17,5.76-10.73,7.72-15.71,3.93-20.81,3.53-24.35S139.17,65.83,139.17,65.83Z" fill="#58bc53"></path><path d="M150,98.38a117.75,117.75,0,0,0-19.68-20.76l.08-.16a.51.51,0,0,0,.37-.71q3-5.86,6.59-11.42c-.41,0-.81.05-1.23.06q-3.43,5.42-6.36,11.12a110.73,110.73,0,0,0-35.52,7.26c-.59.23-.34,1.2.27,1A109.89,109.89,0,0,1,129,77.55a.38.38,0,0,0,.1.31c-2.92,5.77-5.55,11.7-8,17.68l-.13-.08a.44.44,0,0,0-.58.08,97.39,97.39,0,0,0-25.9,8.74c-.58.29-.07,1.15.5.86a96.46,96.46,0,0,1,25.68-8.64l0,0c-.81,2-1.64,3.93-2.47,5.91a.5.5,0,0,0-.24.56c-4.57,10.94-9,22.19-10.23,34-.06.64.94.64,1,0,1.15-11.34,5.39-22.21,9.8-32.77a155.27,155.27,0,0,1,11,28.4.5.5,0,0,0,1-.27A156.55,156.55,0,0,0,119,102.94q1.25-3,2.48-5.94c3.66,2.29,7.23,4.81,9.32,8.71.3.57,1.17.06.86-.5-2.19-4.09-5.94-6.74-9.79-9.14,2.46-5.93,5.06-11.81,8-17.53a116.7,116.7,0,0,1,19.27,20.35C149.47,99.39,150.34,98.89,150,98.38Z" fill="#308029"></path><path d="M233.88,122.93s6.4-15.77-5-19.27c0,0,8.52,1.35,9.72,4.45s-.23,15.07-2.62,17.3S233.88,122.93,233.88,122.93Z" fill="#F37DF3"></path><path d="M233.88,122.93s6.4-15.77-5-19.27c0,0,8.52,1.35,9.72,4.45s-.23,15.07-2.62,17.3S233.88,122.93,233.88,122.93Z" opacity="0.61"></path><path d="M209.63,125.81s3.91,17.1,4.61,17.8a10.61,10.61,0,0,0,5.88,1.64c1.69-.26,17.44-8,17.48-12.44s-6.7-20.2-6.7-20.2-2-3.91-7.55-1.62a38.67,38.67,0,0,0-12.14,7.95" fill="#F37DF3"></path><path d="M214.11,125.94s15.09-5.88,15.31-10.25-4-4.64-9-2.72-10.71,7.24-10.71,7.24Z" opacity="0.61"></path><path d="M209.74,126.24l4.77,2.09s-4.1-22.82,14-23.58c18.59-.78,5.76,22.24,5.76,22.24l2.17.19s10.49-16.68-.57-24.37S208.18,105.63,209.74,126.24Z" fill="#F37DF3"></path><path d="M213.74,139.26c-13.87,8.06-24.52-8.66-25.69-9.35a1.68,1.68,0,0,1,.82-3.05c1.72-.06,12.86,8.44,16.8,6.87s6.08-5.74,6.08-5.74a6.59,6.59,0,0,1,4.39,5.44C216.94,137.93,213.74,139.26,213.74,139.26Z" fill="#F37DF3"></path><path d="M188.87,126.85a4.9,4.9,0,0,0-4.71,1.22c-2,2.06,2.81,2.75,3.89,1.83" fill="#F37DF3"></path><path d="M186.35,130.3s-2.32-.09-2.63-1,2.44-2.72,3.6-2.19S187,130.24,186.35,130.3Z" opacity="0.61"></path><path d="M187.27,130.28c0-.94.06-1.6.06-1.6a7.19,7.19,0,0,0-6.41,1c-3.41,2.23-6.19,8.07-5.77,8.56s1.39-.14,1.32,0-2.23,1.72-2,3.26,1.81,1.26,1.32,2.86-2.09,4.24-.63,4.94A3.07,3.07,0,0,0,179,148C180.21,141.64,182.65,134.77,187.27,130.28Z" fill="#62d1ce"></path><path d="M234.77,98.52l-.81-.1c-1.79-.21-6-.67-6.87-.38-1.11.37-4.26,1.74-4.26,1.74s-2.26.84-2.42,2.56c0,0,6-2.26,7.79-1.8s-2.66,3.68-1.93,4.43,3.32-.54,4.43-1.1,7.77-.22,7.77-.22V99.78" fill="#ffb7a2"></path><path d="M271.68,178.24s.33,9-1.32,11.74-9.87,7.32-7.7,9.25,7.29,1,9-1.16a42.66,42.66,0,0,0,3-4.65l0,3.41s3.42-2,3.42-2.17.79-20.34.79-20.34" fill="#d9e021"></path><path d="M284.14,182s.33,9-1.33,11.7-10.32,8.94-8.13,10.86,7.3.15,9.42-2.48a31.07,31.07,0,0,0,3.1-4.95l0,3.4s3.45-2,3.45-2.17.79-20.28.79-20.28" fill="#d9e021"></path><path d="M266.65,77.52C263.33,82.07,256,91.61,252,93.4c-5.41,2.37-17.21,3.3-17.21,3.3s-.24,7.21,2.15,9.42c0,0,16.79,0,21.4-3.55s11-8.48,11-8.48l-.87-17.36C267.85,77,267.24,77.23,266.65,77.52Z" fill="#d9e021"></path><path d="M267.82,106.11c-.44,1.13-4.46,67.13-.22,75.53A21.35,21.35,0,0,0,278.81,184l1.39,4.92s10.42,3.23,17.94.09c0,0-3.6-68.74-8.92-81.48" fill="#3c6071"></path><path d="M267.77,108.86c-.59-5.63-1.58-15.31-1.48-15.5,3.1-6.17,23.26-5.66,24.24-2.57.71,2.24-.2,12.8-.75,18.49C282.81,112.08,274.91,111.12,267.77,108.86Z" fill="#d9e021"></path><path d="M293.86,140.79a49.37,49.37,0,0,0,3.51-9.94,86.18,86.18,0,0,0,1.42-11.33l-6.57,3.28v3.9s-3.16,6.21-2.29,6.75,2.72-2,2.72-2a27.42,27.42,0,0,1,0,5.34C292.34,138.46,292.15,140.47,293.86,140.79Z" fill="#ffb7a2"></path><path d="M302.75,111.15c-1.32-16.22-8.94-26.4-11-30.1-1.53-2.79-5.49-5-7.65-5.76-.93-.17-1.86-.31-2.81-.39l-2.23-.1A28,28,0,0,0,267,77.35a50.79,50.79,0,0,0-1.16,11.08c1.63,5.17,3.18,10.36,4.77,15.54,6.27-.35,18.58-4,18.58-4l3.46,9.25s-1.4,9.17-1.89,14c2.3,1,5.52.19,8,.83,1.15.3,2,.25,3.12.54C302.23,120.6,302.93,113.43,302.75,111.15Z" fill="#d9e021"></path><path d="M267.26,64.13c-.32.15.52,14.81,6.45,13.7s6.1-6,6-7.22-2.69-4.45-3.55-5.67S268.63,63.47,267.26,64.13Z" fill="#ffb7a2"></path><path d="M267.46,67.93l-.2-3.8s2.9-1,3.76.23,0,5.3,2.47,4.14,3.64-1.34,3.68.58-.28,2.85,1.09,3,.56,2.44.56,2.44-1.11,1,3.13-.92,1.66-13.27-1.48-13.9c-5-1-13.66-.8-14.58,2.83A5,5,0,0,0,267.46,67.93Z" fill="#42342d"></path><path d="M265.72,63.62c-1.36,1.14-.17,5.64.84,6.65s-.55,2.34-.42,3.9,3.11,2,3.11,2a2.56,2.56,0,0,1-1.57-4.08c1.29-2-.56-1.61-.26-5.26A2.59,2.59,0,0,1,271,64.36s-.18-2.49-2.24-2.27A4.56,4.56,0,0,0,265.72,63.62Z" fill="#42342d"></path><path d="M279.13,62.58s1-6.16,6.75-5.61,5.48,5.18,4,6.93-7.47,1.94-7.47,1.94" fill="#42342d"></path><path d="M267.23,87.4c0-.64-1-.64-1,0l1.35,26.52c0,.64,1,.64,1,0Z" fill="#3c6071"></path><polygon points="283.39 89.56 286.68 110.27 289.77 109.29 290.39 102.17 283.39 89.56" fill="#adad05"></polygon><path d="M292.41,106.39c-.82-2.48-2.39-4.7-3.56-7-1.66-3.29-3.08-6.68-4.5-10.08-.24-.59-1.21-.33-1,.27,2.14,5.13,4.59,10,7.11,15,2.88,5.68.45,12.84-.45,18.83-.09.63.87.9,1,.27q.75-5,1.5-9.93C292.87,111.22,293.21,108.8,292.41,106.39Z" fill="#3c6071"></path><path d="M275.67,122.63c0-.64-1-.64-1,0q1.12,33,5.43,65.72c.08.63,1.08.64,1,0Q276.8,155.63,275.67,122.63Z" fill="#122830"></path></svg>